<mxfile host="app.diagrams.net" agent="Mozilla/5.0 (Windows NT 10.0; Win64; x64) AppleWebKit/537.36 (KHTML, like Gecko) Chrome/128.0.0.0 Safari/537.36 OPR/114.0.0.0" version="24.8.6">
  <diagram id="C5RBs43oDa-KdzZeNtuy" name="Page-1">
    <mxGraphModel dx="3861" dy="2225" grid="1" gridSize="10" guides="1" tooltips="1" connect="1" arrows="1" fold="1" page="1" pageScale="1" pageWidth="827" pageHeight="1169" math="0" shadow="0">
      <root>
        <mxCell id="WIyWlLk6GJQsqaUBKTNV-0" />
        <mxCell id="WIyWlLk6GJQsqaUBKTNV-1" parent="WIyWlLk6GJQsqaUBKTNV-0" />
        <mxCell id="I_LjJgBzsUawm7O9w_LE-12" value="Movie" style="swimlane;fontStyle=1;align=center;verticalAlign=top;childLayout=stackLayout;horizontal=1;startSize=26;horizontalStack=0;resizeParent=1;resizeParentMax=0;resizeLast=0;collapsible=1;marginBottom=0;whiteSpace=wrap;html=1;" vertex="1" parent="WIyWlLk6GJQsqaUBKTNV-1">
          <mxGeometry x="580" y="200" width="230" height="158" as="geometry" />
        </mxCell>
        <mxCell id="I_LjJgBzsUawm7O9w_LE-13" value="&lt;div&gt;id : int&lt;/div&gt;&lt;div&gt;&lt;span style=&quot;background-color: initial;&quot;&gt;original_language: Optional[str]=None&lt;/span&gt;&lt;/div&gt;&lt;div&gt;original_title: Optional[str]=None&lt;/div&gt;&lt;div&gt;release_date:Optional[date|str]=None&lt;/div&gt;&lt;div&gt;title: Optional[str]=None&lt;/div&gt;&lt;div&gt;vote_average: Optional[float]=None&lt;/div&gt;&lt;div&gt;vote_count: Optional[int]=None&lt;/div&gt;&lt;div&gt;overview: Optional[str]=None&lt;/div&gt;" style="text;strokeColor=none;fillColor=none;align=left;verticalAlign=top;spacingLeft=4;spacingRight=4;overflow=hidden;rotatable=0;points=[[0,0.5],[1,0.5]];portConstraint=eastwest;whiteSpace=wrap;html=1;" vertex="1" parent="I_LjJgBzsUawm7O9w_LE-12">
          <mxGeometry y="26" width="230" height="124" as="geometry" />
        </mxCell>
        <mxCell id="I_LjJgBzsUawm7O9w_LE-14" value="" style="line;strokeWidth=1;fillColor=none;align=left;verticalAlign=middle;spacingTop=-1;spacingLeft=3;spacingRight=3;rotatable=0;labelPosition=right;points=[];portConstraint=eastwest;strokeColor=inherit;" vertex="1" parent="I_LjJgBzsUawm7O9w_LE-12">
          <mxGeometry y="150" width="230" height="8" as="geometry" />
        </mxCell>
        <mxCell id="I_LjJgBzsUawm7O9w_LE-16" value="Genre" style="swimlane;fontStyle=1;align=center;verticalAlign=top;childLayout=stackLayout;horizontal=1;startSize=26;horizontalStack=0;resizeParent=1;resizeParentMax=0;resizeLast=0;collapsible=1;marginBottom=0;whiteSpace=wrap;html=1;" vertex="1" parent="WIyWlLk6GJQsqaUBKTNV-1">
          <mxGeometry x="880" y="200" width="160" height="104" as="geometry" />
        </mxCell>
        <mxCell id="I_LjJgBzsUawm7O9w_LE-17" value="id_genre : int&lt;div&gt;name_genre : str&lt;/div&gt;" style="text;strokeColor=none;fillColor=none;align=left;verticalAlign=top;spacingLeft=4;spacingRight=4;overflow=hidden;rotatable=0;points=[[0,0.5],[1,0.5]];portConstraint=eastwest;whiteSpace=wrap;html=1;" vertex="1" parent="I_LjJgBzsUawm7O9w_LE-16">
          <mxGeometry y="26" width="160" height="44" as="geometry" />
        </mxCell>
        <mxCell id="I_LjJgBzsUawm7O9w_LE-18" value="" style="line;strokeWidth=1;fillColor=none;align=left;verticalAlign=middle;spacingTop=-1;spacingLeft=3;spacingRight=3;rotatable=0;labelPosition=right;points=[];portConstraint=eastwest;strokeColor=inherit;" vertex="1" parent="I_LjJgBzsUawm7O9w_LE-16">
          <mxGeometry y="70" width="160" height="8" as="geometry" />
        </mxCell>
        <mxCell id="I_LjJgBzsUawm7O9w_LE-19" value="info():" style="text;strokeColor=none;fillColor=none;align=left;verticalAlign=top;spacingLeft=4;spacingRight=4;overflow=hidden;rotatable=0;points=[[0,0.5],[1,0.5]];portConstraint=eastwest;whiteSpace=wrap;html=1;" vertex="1" parent="I_LjJgBzsUawm7O9w_LE-16">
          <mxGeometry y="78" width="160" height="26" as="geometry" />
        </mxCell>
        <mxCell id="I_LjJgBzsUawm7O9w_LE-25" value="MovieGenre" style="swimlane;fontStyle=1;align=center;verticalAlign=top;childLayout=stackLayout;horizontal=1;startSize=26;horizontalStack=0;resizeParent=1;resizeParentMax=0;resizeLast=0;collapsible=1;marginBottom=0;whiteSpace=wrap;html=1;" vertex="1" parent="WIyWlLk6GJQsqaUBKTNV-1">
          <mxGeometry x="360" y="200" width="160" height="78" as="geometry" />
        </mxCell>
        <mxCell id="I_LjJgBzsUawm7O9w_LE-26" value="id_genre : int&lt;div&gt;id_movie : int&lt;/div&gt;" style="text;strokeColor=none;fillColor=none;align=left;verticalAlign=top;spacingLeft=4;spacingRight=4;overflow=hidden;rotatable=0;points=[[0,0.5],[1,0.5]];portConstraint=eastwest;whiteSpace=wrap;html=1;" vertex="1" parent="I_LjJgBzsUawm7O9w_LE-25">
          <mxGeometry y="26" width="160" height="44" as="geometry" />
        </mxCell>
        <mxCell id="I_LjJgBzsUawm7O9w_LE-27" value="" style="line;strokeWidth=1;fillColor=none;align=left;verticalAlign=middle;spacingTop=-1;spacingLeft=3;spacingRight=3;rotatable=0;labelPosition=right;points=[];portConstraint=eastwest;strokeColor=inherit;" vertex="1" parent="I_LjJgBzsUawm7O9w_LE-25">
          <mxGeometry y="70" width="160" height="8" as="geometry" />
        </mxCell>
        <mxCell id="I_LjJgBzsUawm7O9w_LE-29" value="SeenMovie" style="swimlane;fontStyle=1;align=center;verticalAlign=top;childLayout=stackLayout;horizontal=1;startSize=26;horizontalStack=0;resizeParent=1;resizeParentMax=0;resizeLast=0;collapsible=1;marginBottom=0;whiteSpace=wrap;html=1;" vertex="1" parent="WIyWlLk6GJQsqaUBKTNV-1">
          <mxGeometry x="170" y="200" width="160" height="128" as="geometry" />
        </mxCell>
        <mxCell id="I_LjJgBzsUawm7O9w_LE-30" value="&lt;div&gt;id_user : int&amp;nbsp;&lt;/div&gt;&lt;div&gt;id_movie : int&amp;nbsp;&lt;/div&gt;&lt;div&gt;seen : bool&amp;nbsp;&lt;/div&gt;&lt;div&gt;to_watch_later: bool&lt;/div&gt;&lt;div&gt;vote : int|None = None&amp;nbsp;&lt;/div&gt;&lt;div&gt;favorite : bool = False&lt;/div&gt;" style="text;strokeColor=none;fillColor=none;align=left;verticalAlign=top;spacingLeft=4;spacingRight=4;overflow=hidden;rotatable=0;points=[[0,0.5],[1,0.5]];portConstraint=eastwest;whiteSpace=wrap;html=1;" vertex="1" parent="I_LjJgBzsUawm7O9w_LE-29">
          <mxGeometry y="26" width="160" height="94" as="geometry" />
        </mxCell>
        <mxCell id="I_LjJgBzsUawm7O9w_LE-31" value="" style="line;strokeWidth=1;fillColor=none;align=left;verticalAlign=middle;spacingTop=-1;spacingLeft=3;spacingRight=3;rotatable=0;labelPosition=right;points=[];portConstraint=eastwest;strokeColor=inherit;" vertex="1" parent="I_LjJgBzsUawm7O9w_LE-29">
          <mxGeometry y="120" width="160" height="8" as="geometry" />
        </mxCell>
        <mxCell id="I_LjJgBzsUawm7O9w_LE-33" value="User" style="swimlane;fontStyle=1;align=center;verticalAlign=top;childLayout=stackLayout;horizontal=1;startSize=26;horizontalStack=0;resizeParent=1;resizeParentMax=0;resizeLast=0;collapsible=1;marginBottom=0;whiteSpace=wrap;html=1;" vertex="1" parent="WIyWlLk6GJQsqaUBKTNV-1">
          <mxGeometry x="-30" y="200" width="160" height="148" as="geometry" />
        </mxCell>
        <mxCell id="I_LjJgBzsUawm7O9w_LE-34" value="&lt;div&gt;id_user : int|None=None&lt;/div&gt;&lt;div&gt;username: str&amp;nbsp;&lt;/div&gt;&lt;div&gt;salt: str|None&lt;/div&gt;&lt;div&gt;pass_word: str&lt;/div&gt;&lt;div&gt;following : list[int] = []&lt;/div&gt;&lt;div&gt;favorite_movie : list[int] = []&lt;/div&gt;&lt;div&gt;watchlist : list[int] = []&lt;/div&gt;" style="text;strokeColor=none;fillColor=none;align=left;verticalAlign=top;spacingLeft=4;spacingRight=4;overflow=hidden;rotatable=0;points=[[0,0.5],[1,0.5]];portConstraint=eastwest;whiteSpace=wrap;html=1;" vertex="1" parent="I_LjJgBzsUawm7O9w_LE-33">
          <mxGeometry y="26" width="160" height="114" as="geometry" />
        </mxCell>
        <mxCell id="I_LjJgBzsUawm7O9w_LE-35" value="" style="line;strokeWidth=1;fillColor=none;align=left;verticalAlign=middle;spacingTop=-1;spacingLeft=3;spacingRight=3;rotatable=0;labelPosition=right;points=[];portConstraint=eastwest;strokeColor=inherit;" vertex="1" parent="I_LjJgBzsUawm7O9w_LE-33">
          <mxGeometry y="140" width="160" height="8" as="geometry" />
        </mxCell>
        <mxCell id="I_LjJgBzsUawm7O9w_LE-122" style="edgeStyle=orthogonalEdgeStyle;rounded=0;orthogonalLoop=1;jettySize=auto;html=1;exitX=0.75;exitY=1;exitDx=0;exitDy=0;entryX=0.25;entryY=0;entryDx=0;entryDy=0;" edge="1" parent="WIyWlLk6GJQsqaUBKTNV-1" source="I_LjJgBzsUawm7O9w_LE-41" target="I_LjJgBzsUawm7O9w_LE-29">
          <mxGeometry relative="1" as="geometry" />
        </mxCell>
        <mxCell id="I_LjJgBzsUawm7O9w_LE-124" style="edgeStyle=orthogonalEdgeStyle;rounded=0;orthogonalLoop=1;jettySize=auto;html=1;exitX=0.25;exitY=0;exitDx=0;exitDy=0;entryX=0.288;entryY=-0.01;entryDx=0;entryDy=0;entryPerimeter=0;" edge="1" parent="WIyWlLk6GJQsqaUBKTNV-1" target="I_LjJgBzsUawm7O9w_LE-80">
          <mxGeometry relative="1" as="geometry">
            <mxPoint x="-19.950000000000003" y="-220" as="sourcePoint" />
            <mxPoint x="702.55" y="-810" as="targetPoint" />
            <Array as="points">
              <mxPoint x="-20" y="-890" />
              <mxPoint x="752" y="-890" />
              <mxPoint x="752" y="-821" />
            </Array>
          </mxGeometry>
        </mxCell>
        <mxCell id="I_LjJgBzsUawm7O9w_LE-132" value="appelle" style="edgeLabel;html=1;align=center;verticalAlign=middle;resizable=0;points=[];" vertex="1" connectable="0" parent="I_LjJgBzsUawm7O9w_LE-124">
          <mxGeometry x="-0.7278" relative="1" as="geometry">
            <mxPoint as="offset" />
          </mxGeometry>
        </mxCell>
        <mxCell id="I_LjJgBzsUawm7O9w_LE-126" style="edgeStyle=orthogonalEdgeStyle;rounded=0;orthogonalLoop=1;jettySize=auto;html=1;entryX=0.75;entryY=0;entryDx=0;entryDy=0;" edge="1" parent="WIyWlLk6GJQsqaUBKTNV-1" source="I_LjJgBzsUawm7O9w_LE-41" target="I_LjJgBzsUawm7O9w_LE-33">
          <mxGeometry relative="1" as="geometry" />
        </mxCell>
        <mxCell id="I_LjJgBzsUawm7O9w_LE-41" value="SeenMovieService" style="swimlane;fontStyle=1;align=center;verticalAlign=top;childLayout=stackLayout;horizontal=1;startSize=26;horizontalStack=0;resizeParent=1;resizeParentMax=0;resizeLast=0;collapsible=1;marginBottom=0;whiteSpace=wrap;html=1;" vertex="1" parent="WIyWlLk6GJQsqaUBKTNV-1">
          <mxGeometry x="-80" y="-230" width="370" height="200" as="geometry" />
        </mxCell>
        <mxCell id="I_LjJgBzsUawm7O9w_LE-43" value="" style="line;strokeWidth=1;fillColor=none;align=left;verticalAlign=middle;spacingTop=-1;spacingLeft=3;spacingRight=3;rotatable=0;labelPosition=right;points=[];portConstraint=eastwest;strokeColor=inherit;" vertex="1" parent="I_LjJgBzsUawm7O9w_LE-41">
          <mxGeometry y="26" width="370" height="8" as="geometry" />
        </mxCell>
        <mxCell id="I_LjJgBzsUawm7O9w_LE-44" value="watch_movie(id_user, id_movie) :: SeenMovie&lt;div&gt;&lt;span style=&quot;background-color: initial;&quot;&gt;add_to_watchlist(id_user, id_movie) :: SeenMovie&lt;/span&gt;&lt;div&gt;&lt;div&gt;remote_from_user_watchlists(id_user:int, id_movie:int)&lt;/div&gt;&lt;/div&gt;&lt;div&gt;add_to_favoritelist(id_user:int,&lt;/div&gt;&lt;div&gt;id_movie:int) :: SeenMovie&lt;br&gt;&lt;/div&gt;&lt;div&gt;remote_from_user_favorites(id_user:int, id_movie:int) :: SeenMovie&lt;br&gt;&lt;/div&gt;&lt;div&gt;user_watchlist(id_user : int):: list[Movie]&lt;br&gt;&lt;/div&gt;&lt;div&gt;user_seenmovies(id_user: int) :: list[Movie]&lt;br&gt;&lt;/div&gt;&lt;div&gt;user_favorites_movie(id_user : int) :: list[User]&lt;br&gt;&lt;/div&gt;&lt;div&gt;who_watch_movie(id_movie : int) :: list[Movie]&lt;br&gt;&lt;/div&gt;&lt;div&gt;get_top_movies_liked_by_others_users(id_user:int, top:int=5)&lt;br&gt;&lt;/div&gt;&lt;div&gt;&lt;br&gt;&lt;/div&gt;&lt;div&gt;&lt;br&gt;&lt;/div&gt;&lt;div&gt;&lt;br&gt;&lt;/div&gt;&lt;div&gt;&lt;br&gt;&lt;/div&gt;&lt;/div&gt;" style="text;strokeColor=none;fillColor=none;align=left;verticalAlign=top;spacingLeft=4;spacingRight=4;overflow=hidden;rotatable=0;points=[[0,0.5],[1,0.5]];portConstraint=eastwest;whiteSpace=wrap;html=1;" vertex="1" parent="I_LjJgBzsUawm7O9w_LE-41">
          <mxGeometry y="34" width="370" height="166" as="geometry" />
        </mxCell>
        <mxCell id="I_LjJgBzsUawm7O9w_LE-97" style="edgeStyle=orthogonalEdgeStyle;rounded=0;orthogonalLoop=1;jettySize=auto;html=1;entryX=0.5;entryY=0;entryDx=0;entryDy=0;" edge="1" parent="WIyWlLk6GJQsqaUBKTNV-1" source="I_LjJgBzsUawm7O9w_LE-45" target="I_LjJgBzsUawm7O9w_LE-33">
          <mxGeometry relative="1" as="geometry">
            <Array as="points">
              <mxPoint x="-380" y="120" />
              <mxPoint x="50" y="120" />
            </Array>
          </mxGeometry>
        </mxCell>
        <mxCell id="I_LjJgBzsUawm7O9w_LE-45" value="UserService" style="swimlane;fontStyle=1;align=center;verticalAlign=top;childLayout=stackLayout;horizontal=1;startSize=26;horizontalStack=0;resizeParent=1;resizeParentMax=0;resizeLast=0;collapsible=1;marginBottom=0;whiteSpace=wrap;html=1;" vertex="1" parent="WIyWlLk6GJQsqaUBKTNV-1">
          <mxGeometry x="-490" y="-230" width="280" height="160" as="geometry" />
        </mxCell>
        <mxCell id="I_LjJgBzsUawm7O9w_LE-47" value="" style="line;strokeWidth=1;fillColor=none;align=left;verticalAlign=middle;spacingTop=-1;spacingLeft=3;spacingRight=3;rotatable=0;labelPosition=right;points=[];portConstraint=eastwest;strokeColor=inherit;" vertex="1" parent="I_LjJgBzsUawm7O9w_LE-45">
          <mxGeometry y="26" width="280" height="8" as="geometry" />
        </mxCell>
        <mxCell id="I_LjJgBzsUawm7O9w_LE-48" value="create_user(username: str, pass_word: str) :: User&lt;br/&gt;get_user_by_id(user_id: int) :: User | None&lt;br/&gt;delete_user(user_id: int) :: None&lt;br/&gt;check_username(username: str) :: bool&lt;br/&gt;search_user(username: str) :: User&lt;br/&gt;user_exists(username: str) :: bool" style="text;strokeColor=none;fillColor=none;align=left;verticalAlign=top;spacingLeft=4;spacingRight=4;overflow=hidden;rotatable=0;points=[[0,0.5],[1,0.5]];portConstraint=eastwest;whiteSpace=wrap;html=1;" vertex="1" parent="I_LjJgBzsUawm7O9w_LE-45">
          <mxGeometry y="34" width="280" height="126" as="geometry" />
        </mxCell>
        <mxCell id="I_LjJgBzsUawm7O9w_LE-49" value="SchedulerService" style="swimlane;fontStyle=1;align=center;verticalAlign=top;childLayout=stackLayout;horizontal=1;startSize=26;horizontalStack=0;resizeParent=1;resizeParentMax=0;resizeLast=0;collapsible=1;marginBottom=0;whiteSpace=wrap;html=1;" vertex="1" parent="WIyWlLk6GJQsqaUBKTNV-1">
          <mxGeometry x="1530" y="-220" width="180" height="110" as="geometry" />
        </mxCell>
        <mxCell id="I_LjJgBzsUawm7O9w_LE-51" value="" style="line;strokeWidth=1;fillColor=none;align=left;verticalAlign=middle;spacingTop=-1;spacingLeft=3;spacingRight=3;rotatable=0;labelPosition=right;points=[];portConstraint=eastwest;strokeColor=inherit;" vertex="1" parent="I_LjJgBzsUawm7O9w_LE-49">
          <mxGeometry y="26" width="180" height="8" as="geometry" />
        </mxCell>
        <mxCell id="I_LjJgBzsUawm7O9w_LE-52" value="update_movie_genre() :: bool&lt;br/&gt;start() :: None" style="text;strokeColor=none;fillColor=none;align=left;verticalAlign=top;spacingLeft=4;spacingRight=4;overflow=hidden;rotatable=0;points=[[0,0.5],[1,0.5]];portConstraint=eastwest;whiteSpace=wrap;html=1;" vertex="1" parent="I_LjJgBzsUawm7O9w_LE-49">
          <mxGeometry y="34" width="180" height="76" as="geometry" />
        </mxCell>
        <mxCell id="I_LjJgBzsUawm7O9w_LE-53" value="NoteService" style="swimlane;fontStyle=1;align=center;verticalAlign=top;childLayout=stackLayout;horizontal=1;startSize=26;horizontalStack=0;resizeParent=1;resizeParentMax=0;resizeLast=0;collapsible=1;marginBottom=0;whiteSpace=wrap;html=1;" vertex="1" parent="WIyWlLk6GJQsqaUBKTNV-1">
          <mxGeometry x="320" y="-430" width="350" height="110" as="geometry" />
        </mxCell>
        <mxCell id="I_LjJgBzsUawm7O9w_LE-55" value="" style="line;strokeWidth=1;fillColor=none;align=left;verticalAlign=middle;spacingTop=-1;spacingLeft=3;spacingRight=3;rotatable=0;labelPosition=right;points=[];portConstraint=eastwest;strokeColor=inherit;" vertex="1" parent="I_LjJgBzsUawm7O9w_LE-53">
          <mxGeometry y="26" width="350" height="8" as="geometry" />
        </mxCell>
        <mxCell id="I_LjJgBzsUawm7O9w_LE-56" value="note_movie(id_user: int, id_movie: int, note: int) :: Movie | None&lt;br/&gt;remove_note_movie(id_user: int, id_movie: int) :: Movie | bool" style="text;strokeColor=none;fillColor=none;align=left;verticalAlign=top;spacingLeft=4;spacingRight=4;overflow=hidden;rotatable=0;points=[[0,0.5],[1,0.5]];portConstraint=eastwest;whiteSpace=wrap;html=1;" vertex="1" parent="I_LjJgBzsUawm7O9w_LE-53">
          <mxGeometry y="34" width="350" height="76" as="geometry" />
        </mxCell>
        <mxCell id="I_LjJgBzsUawm7O9w_LE-111" style="edgeStyle=orthogonalEdgeStyle;rounded=0;orthogonalLoop=1;jettySize=auto;html=1;exitX=0.25;exitY=1;exitDx=0;exitDy=0;entryX=0.25;entryY=0;entryDx=0;entryDy=0;" edge="1" parent="WIyWlLk6GJQsqaUBKTNV-1" source="I_LjJgBzsUawm7O9w_LE-58" target="I_LjJgBzsUawm7O9w_LE-12">
          <mxGeometry relative="1" as="geometry" />
        </mxCell>
        <mxCell id="I_LjJgBzsUawm7O9w_LE-58" value="MovieService" style="swimlane;fontStyle=1;align=center;verticalAlign=top;childLayout=stackLayout;horizontal=1;startSize=26;horizontalStack=0;resizeParent=1;resizeParentMax=0;resizeLast=0;collapsible=1;marginBottom=0;whiteSpace=wrap;html=1;" vertex="1" parent="WIyWlLk6GJQsqaUBKTNV-1">
          <mxGeometry x="580" y="-220" width="350" height="140" as="geometry" />
        </mxCell>
        <mxCell id="I_LjJgBzsUawm7O9w_LE-60" value="" style="line;strokeWidth=1;fillColor=none;align=left;verticalAlign=middle;spacingTop=-1;spacingLeft=3;spacingRight=3;rotatable=0;labelPosition=right;points=[];portConstraint=eastwest;strokeColor=inherit;" vertex="1" parent="I_LjJgBzsUawm7O9w_LE-58">
          <mxGeometry y="26" width="350" height="8" as="geometry" />
        </mxCell>
        <mxCell id="I_LjJgBzsUawm7O9w_LE-61" value="&lt;div&gt;get_by_id(movie_id: int, user_id=None) :: Movie | None&lt;/div&gt;&lt;div&gt;get_by_title(title: str, user_id=None) :: list[Movie]&lt;/div&gt;&lt;div&gt;get_by_genre(genre: str, user_id=None) :: list[Movie]&lt;/div&gt;&lt;div&gt;get_by_release_period(start_release_date: str, end_release_date: str) :: list[Movie]&lt;/div&gt;&lt;div&gt;get_lastest_released(number: int) :: list[Movie]&lt;/div&gt;&lt;div&gt;&lt;br&gt;&lt;/div&gt;" style="text;strokeColor=none;fillColor=none;align=left;verticalAlign=top;spacingLeft=4;spacingRight=4;overflow=hidden;rotatable=0;points=[[0,0.5],[1,0.5]];portConstraint=eastwest;whiteSpace=wrap;html=1;" vertex="1" parent="I_LjJgBzsUawm7O9w_LE-58">
          <mxGeometry y="34" width="350" height="106" as="geometry" />
        </mxCell>
        <mxCell id="I_LjJgBzsUawm7O9w_LE-108" style="edgeStyle=orthogonalEdgeStyle;rounded=0;orthogonalLoop=1;jettySize=auto;html=1;entryX=1;entryY=0.5;entryDx=0;entryDy=0;" edge="1" parent="WIyWlLk6GJQsqaUBKTNV-1" source="I_LjJgBzsUawm7O9w_LE-62" target="I_LjJgBzsUawm7O9w_LE-17">
          <mxGeometry relative="1" as="geometry" />
        </mxCell>
        <mxCell id="I_LjJgBzsUawm7O9w_LE-109" style="edgeStyle=orthogonalEdgeStyle;rounded=0;orthogonalLoop=1;jettySize=auto;html=1;exitX=0.25;exitY=1;exitDx=0;exitDy=0;entryX=0.75;entryY=0;entryDx=0;entryDy=0;" edge="1" parent="WIyWlLk6GJQsqaUBKTNV-1" source="I_LjJgBzsUawm7O9w_LE-62" target="I_LjJgBzsUawm7O9w_LE-12">
          <mxGeometry relative="1" as="geometry" />
        </mxCell>
        <mxCell id="I_LjJgBzsUawm7O9w_LE-62" value="MovieFromTMDService" style="swimlane;fontStyle=1;align=center;verticalAlign=top;childLayout=stackLayout;horizontal=1;startSize=26;horizontalStack=0;resizeParent=1;resizeParentMax=0;resizeLast=0;collapsible=1;marginBottom=0;whiteSpace=wrap;html=1;" vertex="1" parent="WIyWlLk6GJQsqaUBKTNV-1">
          <mxGeometry x="1071" y="-220" width="340" height="210" as="geometry" />
        </mxCell>
        <mxCell id="I_LjJgBzsUawm7O9w_LE-64" value="" style="line;strokeWidth=1;fillColor=none;align=left;verticalAlign=middle;spacingTop=-1;spacingLeft=3;spacingRight=3;rotatable=0;labelPosition=right;points=[];portConstraint=eastwest;strokeColor=inherit;" vertex="1" parent="I_LjJgBzsUawm7O9w_LE-62">
          <mxGeometry y="26" width="340" height="8" as="geometry" />
        </mxCell>
        <mxCell id="I_LjJgBzsUawm7O9w_LE-65" value="&lt;div&gt;build_movie(data: dict) :: dict&lt;/div&gt;&lt;div&gt;get_by_params(payload: dict, url=&#39;https://api.themoviedb.org/3/discover/movie?&#39;) :: list[dict]&lt;/div&gt;&lt;div&gt;search_movie(query: str, language=None, primary_release_year=None, page=None, region=None, year=None) :: list[dict]&lt;/div&gt;&lt;div&gt;get_by_id(movie_id: int) :: Movie | None&lt;/div&gt;&lt;div&gt;get_by_release_period(start_release_date: str, end_release_date: str) :: list[dict]&lt;/div&gt;&lt;div&gt;get_lastest_released(number: int) :: list[Movie]&lt;/div&gt;&lt;div&gt;get_id_name_genre() :: list[Genre]&lt;/div&gt;&lt;div&gt;&lt;br&gt;&lt;/div&gt;" style="text;strokeColor=none;fillColor=none;align=left;verticalAlign=top;spacingLeft=4;spacingRight=4;overflow=hidden;rotatable=0;points=[[0,0.5],[1,0.5]];portConstraint=eastwest;whiteSpace=wrap;html=1;" vertex="1" parent="I_LjJgBzsUawm7O9w_LE-62">
          <mxGeometry y="34" width="340" height="176" as="geometry" />
        </mxCell>
        <mxCell id="I_LjJgBzsUawm7O9w_LE-101" style="edgeStyle=orthogonalEdgeStyle;rounded=0;orthogonalLoop=1;jettySize=auto;html=1;entryX=0.5;entryY=1;entryDx=0;entryDy=0;" edge="1" parent="WIyWlLk6GJQsqaUBKTNV-1" source="I_LjJgBzsUawm7O9w_LE-66" target="I_LjJgBzsUawm7O9w_LE-93">
          <mxGeometry relative="1" as="geometry" />
        </mxCell>
        <mxCell id="I_LjJgBzsUawm7O9w_LE-128" value="appelle" style="edgeLabel;html=1;align=center;verticalAlign=middle;resizable=0;points=[];" vertex="1" connectable="0" parent="I_LjJgBzsUawm7O9w_LE-101">
          <mxGeometry x="0.2723" y="-5" relative="1" as="geometry">
            <mxPoint as="offset" />
          </mxGeometry>
        </mxCell>
        <mxCell id="I_LjJgBzsUawm7O9w_LE-103" style="edgeStyle=orthogonalEdgeStyle;rounded=0;orthogonalLoop=1;jettySize=auto;html=1;exitX=0.75;exitY=0;exitDx=0;exitDy=0;" edge="1" parent="WIyWlLk6GJQsqaUBKTNV-1" source="I_LjJgBzsUawm7O9w_LE-66" target="I_LjJgBzsUawm7O9w_LE-75">
          <mxGeometry relative="1" as="geometry">
            <Array as="points">
              <mxPoint x="-672" y="-530" />
              <mxPoint x="-380" y="-530" />
            </Array>
          </mxGeometry>
        </mxCell>
        <mxCell id="I_LjJgBzsUawm7O9w_LE-129" value="appelle" style="edgeLabel;html=1;align=center;verticalAlign=middle;resizable=0;points=[];" vertex="1" connectable="0" parent="I_LjJgBzsUawm7O9w_LE-103">
          <mxGeometry x="-0.4276" y="-1" relative="1" as="geometry">
            <mxPoint as="offset" />
          </mxGeometry>
        </mxCell>
        <mxCell id="I_LjJgBzsUawm7O9w_LE-104" style="edgeStyle=orthogonalEdgeStyle;rounded=0;orthogonalLoop=1;jettySize=auto;html=1;entryX=0;entryY=0.5;entryDx=0;entryDy=0;" edge="1" parent="WIyWlLk6GJQsqaUBKTNV-1" source="I_LjJgBzsUawm7O9w_LE-66" target="I_LjJgBzsUawm7O9w_LE-34">
          <mxGeometry relative="1" as="geometry" />
        </mxCell>
        <mxCell id="I_LjJgBzsUawm7O9w_LE-66" value="FollowingService" style="swimlane;fontStyle=1;align=center;verticalAlign=top;childLayout=stackLayout;horizontal=1;startSize=26;horizontalStack=0;resizeParent=1;resizeParentMax=0;resizeLast=0;collapsible=1;marginBottom=0;whiteSpace=wrap;html=1;" vertex="1" parent="WIyWlLk6GJQsqaUBKTNV-1">
          <mxGeometry x="-890" y="-200" width="290" height="210" as="geometry">
            <mxRectangle x="1470" y="-516" width="130" height="30" as="alternateBounds" />
          </mxGeometry>
        </mxCell>
        <mxCell id="I_LjJgBzsUawm7O9w_LE-68" value="" style="line;strokeWidth=1;fillColor=none;align=left;verticalAlign=middle;spacingTop=-1;spacingLeft=3;spacingRight=3;rotatable=0;labelPosition=right;points=[];portConstraint=eastwest;strokeColor=inherit;" vertex="1" parent="I_LjJgBzsUawm7O9w_LE-66">
          <mxGeometry y="26" width="290" height="8" as="geometry" />
        </mxCell>
        <mxCell id="I_LjJgBzsUawm7O9w_LE-69" value="&lt;div&gt;add_following(id_user: int, id_following: int) :: bool&lt;/div&gt;&lt;div&gt;stop_follow(id_user: int, id_following: int) :: bool&lt;/div&gt;&lt;div&gt;is_user_follow(id_user: int, id_following: int) :: bool&lt;/div&gt;&lt;div&gt;get_all_following(user_id: int) :: list[User]&lt;/div&gt;&lt;div&gt;get_following_movies_collection(id_user: int, id_following: int) :: dict&lt;/div&gt;&lt;div&gt;get_movies_seen_by_followings(id_user: int) :: list[Movie]&lt;/div&gt;&lt;div&gt;get_movies_liked_by_followings(id_user: int) :: list[Movie]&lt;/div&gt;&lt;div&gt;get_new_follow_suggestion(id_user: int) :: list[User]&lt;/div&gt;&lt;div&gt;&lt;br&gt;&lt;/div&gt;" style="text;strokeColor=none;fillColor=none;align=left;verticalAlign=top;spacingLeft=4;spacingRight=4;overflow=hidden;rotatable=0;points=[[0,0.5],[1,0.5]];portConstraint=eastwest;whiteSpace=wrap;html=1;" vertex="1" parent="I_LjJgBzsUawm7O9w_LE-66">
          <mxGeometry y="34" width="290" height="176" as="geometry" />
        </mxCell>
        <mxCell id="I_LjJgBzsUawm7O9w_LE-72" value="UserRepo" style="swimlane;fontStyle=1;align=center;verticalAlign=top;childLayout=stackLayout;horizontal=1;startSize=26;horizontalStack=0;resizeParent=1;resizeParentMax=0;resizeLast=0;collapsible=1;marginBottom=0;whiteSpace=wrap;html=1;" vertex="1" parent="WIyWlLk6GJQsqaUBKTNV-1">
          <mxGeometry x="-460" y="-820" width="380" height="194" as="geometry" />
        </mxCell>
        <mxCell id="I_LjJgBzsUawm7O9w_LE-74" value="" style="line;strokeWidth=1;fillColor=none;align=left;verticalAlign=middle;spacingTop=-1;spacingLeft=3;spacingRight=3;rotatable=0;labelPosition=right;points=[];portConstraint=eastwest;strokeColor=inherit;" vertex="1" parent="I_LjJgBzsUawm7O9w_LE-72">
          <mxGeometry y="26" width="380" height="8" as="geometry" />
        </mxCell>
        <mxCell id="I_LjJgBzsUawm7O9w_LE-75" value="&lt;div&gt;get_by_id(id_user: int) :: Optional[User]&lt;/div&gt;&lt;div&gt;get_by_username(username: str) :: Optional[User]&lt;/div&gt;&lt;div&gt;insert_into_db(username: str, salt: str, hashed_password: str) :: User&lt;/div&gt;&lt;div&gt;get_all() :: list[User]&lt;/div&gt;&lt;div&gt;modify_user(last_username: str, user: User) :: User&lt;/div&gt;&lt;div&gt;delete_user(username: str) :: None&lt;/div&gt;&lt;div&gt;login(username: str, pass_word: str) :: Optional[User]&lt;/div&gt;&lt;div&gt;&lt;br&gt;&lt;/div&gt;" style="text;strokeColor=none;fillColor=none;align=left;verticalAlign=top;spacingLeft=4;spacingRight=4;overflow=hidden;rotatable=0;points=[[0,0.5],[1,0.5]];portConstraint=eastwest;whiteSpace=wrap;html=1;" vertex="1" parent="I_LjJgBzsUawm7O9w_LE-72">
          <mxGeometry y="34" width="380" height="160" as="geometry" />
        </mxCell>
        <mxCell id="I_LjJgBzsUawm7O9w_LE-76" value="SeenMovieRepo" style="swimlane;fontStyle=1;align=center;verticalAlign=top;childLayout=stackLayout;horizontal=1;startSize=26;horizontalStack=0;resizeParent=1;resizeParentMax=0;resizeLast=0;collapsible=1;marginBottom=0;whiteSpace=wrap;html=1;" vertex="1" parent="WIyWlLk6GJQsqaUBKTNV-1">
          <mxGeometry x="10" y="-820" width="480" height="244" as="geometry" />
        </mxCell>
        <mxCell id="I_LjJgBzsUawm7O9w_LE-78" value="" style="line;strokeWidth=1;fillColor=none;align=left;verticalAlign=middle;spacingTop=-1;spacingLeft=3;spacingRight=3;rotatable=0;labelPosition=right;points=[];portConstraint=eastwest;strokeColor=inherit;" vertex="1" parent="I_LjJgBzsUawm7O9w_LE-76">
          <mxGeometry y="26" width="480" height="8" as="geometry" />
        </mxCell>
        <mxCell id="I_LjJgBzsUawm7O9w_LE-79" value="&lt;div&gt;get_by_user_and_movie(id_user: int, id_movie: int) :: Optional[SeenMovie]&lt;/div&gt;&lt;div&gt;insert_into_db(id_user: int, id_movie: int, seen: bool=True, to_watch_later: bool=False, vote: int=None, favorite: bool=False) :: SeenMovie&lt;/div&gt;&lt;div&gt;update_db(seenmovie: SeenMovie) :: bool&lt;/div&gt;&lt;div&gt;remove_from_user_favorites(id_user: int, id_movie: int) :: bool&lt;/div&gt;&lt;div&gt;remove_from_user_watchlist(id_user: int, id_movie: int) :: bool&lt;/div&gt;&lt;div&gt;get_movies_seen_by_user(id_user: int) :: list[Movie] | None&lt;/div&gt;&lt;div&gt;get_watchlist_movie(id_user: int) :: list[Movie] | None&lt;/div&gt;&lt;div&gt;get_user_favorites_movie(id_user: int) :: list[Movie] | None&lt;/div&gt;&lt;div&gt;get_users_who_watch_movie(id_movie: int) :: list[APIUser] | None&lt;/div&gt;&lt;div&gt;note_movie(id_user: int, id_movie: int, note: int) :: dict | None&lt;/div&gt;&lt;div&gt;remove_note_movie(id_user: int, id_movie: int) :: dict | None&lt;/div&gt;&lt;div&gt;mean_note_user(id_user: int) :: float | None&lt;/div&gt;&lt;div&gt;get_top_movies_liked_by_others_users(id_user: int, top: int=5) :: list[Movie] | None&lt;/div&gt;&lt;div&gt;&lt;br&gt;&lt;/div&gt;" style="text;strokeColor=none;fillColor=none;align=left;verticalAlign=top;spacingLeft=4;spacingRight=4;overflow=hidden;rotatable=0;points=[[0,0.5],[1,0.5]];portConstraint=eastwest;whiteSpace=wrap;html=1;" vertex="1" parent="I_LjJgBzsUawm7O9w_LE-76">
          <mxGeometry y="34" width="480" height="210" as="geometry" />
        </mxCell>
        <mxCell id="I_LjJgBzsUawm7O9w_LE-80" value="MovieRepo" style="swimlane;fontStyle=1;align=center;verticalAlign=top;childLayout=stackLayout;horizontal=1;startSize=26;horizontalStack=0;resizeParent=1;resizeParentMax=0;resizeLast=0;collapsible=1;marginBottom=0;whiteSpace=wrap;html=1;" vertex="1" parent="WIyWlLk6GJQsqaUBKTNV-1">
          <mxGeometry x="620" y="-820" width="460" height="150" as="geometry" />
        </mxCell>
        <mxCell id="I_LjJgBzsUawm7O9w_LE-82" value="" style="line;strokeWidth=1;fillColor=none;align=left;verticalAlign=middle;spacingTop=-1;spacingLeft=3;spacingRight=3;rotatable=0;labelPosition=right;points=[];portConstraint=eastwest;strokeColor=inherit;" vertex="1" parent="I_LjJgBzsUawm7O9w_LE-80">
          <mxGeometry y="26" width="460" height="8" as="geometry" />
        </mxCell>
        <mxCell id="I_LjJgBzsUawm7O9w_LE-83" value="insert_into_db(movies: list[dict]) :: bool&lt;br/&gt;update_vote(id_movie: int, vote_avg: float, vote_count: int) :: Optional[Movie]&lt;br/&gt;get_by_id(movie_id: int, user_id: Optional[int] = None) :: Optional[APIMovie]&lt;br/&gt;get_by_title(title: str, user_id: Optional[int] = None) :: list[APIMovie]&lt;br/&gt;get_by_genre(name_genre: str, user_id: Optional[int] = None) :: list[APIMovie]&lt;br/&gt;get_by_release_period(start_release_date: str, end_release_date: str) :: list[Movie]&lt;br/&gt;get_lastest_released(number: int) :: list[Movie]" style="text;strokeColor=none;fillColor=none;align=left;verticalAlign=top;spacingLeft=4;spacingRight=4;overflow=hidden;rotatable=0;points=[[0,0.5],[1,0.5]];portConstraint=eastwest;whiteSpace=wrap;html=1;" vertex="1" parent="I_LjJgBzsUawm7O9w_LE-80">
          <mxGeometry y="34" width="460" height="116" as="geometry" />
        </mxCell>
        <mxCell id="I_LjJgBzsUawm7O9w_LE-85" value="MovieGenreRepo" style="swimlane;fontStyle=1;align=center;verticalAlign=top;childLayout=stackLayout;horizontal=1;startSize=26;horizontalStack=0;resizeParent=1;resizeParentMax=0;resizeLast=0;collapsible=1;marginBottom=0;whiteSpace=wrap;html=1;" vertex="1" parent="WIyWlLk6GJQsqaUBKTNV-1">
          <mxGeometry x="1180" y="-820" width="270" height="60" as="geometry" />
        </mxCell>
        <mxCell id="I_LjJgBzsUawm7O9w_LE-87" value="" style="line;strokeWidth=1;fillColor=none;align=left;verticalAlign=middle;spacingTop=-1;spacingLeft=3;spacingRight=3;rotatable=0;labelPosition=right;points=[];portConstraint=eastwest;strokeColor=inherit;" vertex="1" parent="I_LjJgBzsUawm7O9w_LE-85">
          <mxGeometry y="26" width="270" height="8" as="geometry" />
        </mxCell>
        <mxCell id="I_LjJgBzsUawm7O9w_LE-88" value="&lt;div&gt;insert_into_db(movie_genres: list[dict]) :: bool&lt;/div&gt;&lt;div&gt;&lt;br&gt;&lt;/div&gt;" style="text;strokeColor=none;fillColor=none;align=left;verticalAlign=top;spacingLeft=4;spacingRight=4;overflow=hidden;rotatable=0;points=[[0,0.5],[1,0.5]];portConstraint=eastwest;whiteSpace=wrap;html=1;" vertex="1" parent="I_LjJgBzsUawm7O9w_LE-85">
          <mxGeometry y="34" width="270" height="26" as="geometry" />
        </mxCell>
        <mxCell id="I_LjJgBzsUawm7O9w_LE-89" value="GenreRepo" style="swimlane;fontStyle=1;align=center;verticalAlign=top;childLayout=stackLayout;horizontal=1;startSize=26;horizontalStack=0;resizeParent=1;resizeParentMax=0;resizeLast=0;collapsible=1;marginBottom=0;whiteSpace=wrap;html=1;" vertex="1" parent="WIyWlLk6GJQsqaUBKTNV-1">
          <mxGeometry x="1550" y="-820" width="320" height="120" as="geometry" />
        </mxCell>
        <mxCell id="I_LjJgBzsUawm7O9w_LE-91" value="" style="line;strokeWidth=1;fillColor=none;align=left;verticalAlign=middle;spacingTop=-1;spacingLeft=3;spacingRight=3;rotatable=0;labelPosition=right;points=[];portConstraint=eastwest;strokeColor=inherit;" vertex="1" parent="I_LjJgBzsUawm7O9w_LE-89">
          <mxGeometry y="26" width="320" height="8" as="geometry" />
        </mxCell>
        <mxCell id="I_LjJgBzsUawm7O9w_LE-92" value="insert_into_db(genres: list[dict]) :: bool&lt;br/&gt;    get_by_id(id_genre: int) :: Optional[Genre]&lt;br/&gt;    get_by_name_genre(name_genre: str) :: Optional[Genre]" style="text;strokeColor=none;fillColor=none;align=left;verticalAlign=top;spacingLeft=4;spacingRight=4;overflow=hidden;rotatable=0;points=[[0,0.5],[1,0.5]];portConstraint=eastwest;whiteSpace=wrap;html=1;" vertex="1" parent="I_LjJgBzsUawm7O9w_LE-89">
          <mxGeometry y="34" width="320" height="86" as="geometry" />
        </mxCell>
        <mxCell id="I_LjJgBzsUawm7O9w_LE-93" value="FollowingRepo" style="swimlane;fontStyle=1;align=center;verticalAlign=top;childLayout=stackLayout;horizontal=1;startSize=26;horizontalStack=0;resizeParent=1;resizeParentMax=0;resizeLast=0;collapsible=1;marginBottom=0;whiteSpace=wrap;html=1;" vertex="1" parent="WIyWlLk6GJQsqaUBKTNV-1">
          <mxGeometry x="-950" y="-820" width="410" height="180" as="geometry" />
        </mxCell>
        <mxCell id="I_LjJgBzsUawm7O9w_LE-96" value="add_following(id_user: int, id_following: int) -&amp;gt; Optional[APIUser]&lt;br/&gt;    delete_following(id_user: int, id_following: int) -&amp;gt; bool&lt;br/&gt;    is_user_follow(id_user: int, id_following: int) -&amp;gt; bool&lt;br/&gt;    get_all_following(id_user: int) -&amp;gt; list[APIUser]&lt;br/&gt;    get_following_seen_movies(id_following: int) -&amp;gt; list[dict]&lt;br/&gt;    get_movies_seen_together(id_user: int, id_following: int) -&amp;gt; list[dict]&lt;br/&gt;    get_movies_seen_by_followings(id_user: int) -&amp;gt; list[dict]&lt;br/&gt;    get_movies_liked_by_followings(id_user: int) -&amp;gt; list[dict]&lt;br/&gt;    get_new_follow_suggestion(id_user: int) -&amp;gt; Optional[dict]" style="text;strokeColor=none;fillColor=none;align=left;verticalAlign=top;spacingLeft=4;spacingRight=4;overflow=hidden;rotatable=0;points=[[0,0.5],[1,0.5]];portConstraint=eastwest;whiteSpace=wrap;html=1;" vertex="1" parent="I_LjJgBzsUawm7O9w_LE-93">
          <mxGeometry y="26" width="410" height="146" as="geometry" />
        </mxCell>
        <mxCell id="I_LjJgBzsUawm7O9w_LE-95" value="" style="line;strokeWidth=1;fillColor=none;align=left;verticalAlign=middle;spacingTop=-1;spacingLeft=3;spacingRight=3;rotatable=0;labelPosition=right;points=[];portConstraint=eastwest;strokeColor=inherit;" vertex="1" parent="I_LjJgBzsUawm7O9w_LE-93">
          <mxGeometry y="172" width="410" height="8" as="geometry" />
        </mxCell>
        <mxCell id="I_LjJgBzsUawm7O9w_LE-98" style="edgeStyle=orthogonalEdgeStyle;rounded=0;orthogonalLoop=1;jettySize=auto;html=1;entryX=0.493;entryY=1.007;entryDx=0;entryDy=0;entryPerimeter=0;" edge="1" parent="WIyWlLk6GJQsqaUBKTNV-1" source="I_LjJgBzsUawm7O9w_LE-45" target="I_LjJgBzsUawm7O9w_LE-75">
          <mxGeometry relative="1" as="geometry">
            <Array as="points">
              <mxPoint x="-380" y="-423" />
              <mxPoint x="-273" y="-423" />
            </Array>
          </mxGeometry>
        </mxCell>
        <mxCell id="I_LjJgBzsUawm7O9w_LE-130" value="appelle" style="edgeLabel;html=1;align=center;verticalAlign=middle;resizable=0;points=[];" vertex="1" connectable="0" parent="I_LjJgBzsUawm7O9w_LE-98">
          <mxGeometry x="-0.4485" y="-4" relative="1" as="geometry">
            <mxPoint as="offset" />
          </mxGeometry>
        </mxCell>
        <mxCell id="I_LjJgBzsUawm7O9w_LE-110" style="edgeStyle=orthogonalEdgeStyle;rounded=0;orthogonalLoop=1;jettySize=auto;html=1;entryX=0;entryY=0.5;entryDx=0;entryDy=0;" edge="1" parent="WIyWlLk6GJQsqaUBKTNV-1" source="I_LjJgBzsUawm7O9w_LE-61" target="I_LjJgBzsUawm7O9w_LE-65">
          <mxGeometry relative="1" as="geometry" />
        </mxCell>
        <mxCell id="I_LjJgBzsUawm7O9w_LE-138" value="appelle" style="edgeLabel;html=1;align=center;verticalAlign=middle;resizable=0;points=[];" vertex="1" connectable="0" parent="I_LjJgBzsUawm7O9w_LE-110">
          <mxGeometry x="-0.0005" relative="1" as="geometry">
            <mxPoint y="-1" as="offset" />
          </mxGeometry>
        </mxCell>
        <mxCell id="I_LjJgBzsUawm7O9w_LE-113" style="edgeStyle=orthogonalEdgeStyle;rounded=0;orthogonalLoop=1;jettySize=auto;html=1;exitX=0.5;exitY=0;exitDx=0;exitDy=0;entryX=0.261;entryY=1;entryDx=0;entryDy=0;entryPerimeter=0;" edge="1" parent="WIyWlLk6GJQsqaUBKTNV-1" source="I_LjJgBzsUawm7O9w_LE-58" target="I_LjJgBzsUawm7O9w_LE-83">
          <mxGeometry relative="1" as="geometry">
            <Array as="points">
              <mxPoint x="755" y="-445" />
              <mxPoint x="740" y="-445" />
            </Array>
          </mxGeometry>
        </mxCell>
        <mxCell id="I_LjJgBzsUawm7O9w_LE-136" value="appelle" style="edgeLabel;html=1;align=center;verticalAlign=middle;resizable=0;points=[];" vertex="1" connectable="0" parent="I_LjJgBzsUawm7O9w_LE-113">
          <mxGeometry x="-0.2137" y="-2" relative="1" as="geometry">
            <mxPoint as="offset" />
          </mxGeometry>
        </mxCell>
        <mxCell id="I_LjJgBzsUawm7O9w_LE-114" style="edgeStyle=orthogonalEdgeStyle;rounded=0;orthogonalLoop=1;jettySize=auto;html=1;exitX=0.75;exitY=0;exitDx=0;exitDy=0;entryX=0.497;entryY=1.37;entryDx=0;entryDy=0;entryPerimeter=0;" edge="1" parent="WIyWlLk6GJQsqaUBKTNV-1" source="I_LjJgBzsUawm7O9w_LE-58" target="I_LjJgBzsUawm7O9w_LE-88">
          <mxGeometry relative="1" as="geometry">
            <Array as="points">
              <mxPoint x="843" y="-490" />
              <mxPoint x="1314" y="-490" />
            </Array>
          </mxGeometry>
        </mxCell>
        <mxCell id="I_LjJgBzsUawm7O9w_LE-137" value="appelle" style="edgeLabel;html=1;align=center;verticalAlign=middle;resizable=0;points=[];" vertex="1" connectable="0" parent="I_LjJgBzsUawm7O9w_LE-114">
          <mxGeometry x="-0.2022" y="1" relative="1" as="geometry">
            <mxPoint as="offset" />
          </mxGeometry>
        </mxCell>
        <mxCell id="I_LjJgBzsUawm7O9w_LE-115" style="edgeStyle=orthogonalEdgeStyle;rounded=0;orthogonalLoop=1;jettySize=auto;html=1;exitX=0.75;exitY=0;exitDx=0;exitDy=0;entryX=0.101;entryY=1.011;entryDx=0;entryDy=0;entryPerimeter=0;" edge="1" parent="WIyWlLk6GJQsqaUBKTNV-1" source="I_LjJgBzsUawm7O9w_LE-53" target="I_LjJgBzsUawm7O9w_LE-83">
          <mxGeometry relative="1" as="geometry">
            <Array as="points">
              <mxPoint x="582" y="-550" />
              <mxPoint x="666" y="-550" />
            </Array>
          </mxGeometry>
        </mxCell>
        <mxCell id="I_LjJgBzsUawm7O9w_LE-135" value="appelle" style="edgeLabel;html=1;align=center;verticalAlign=middle;resizable=0;points=[];" vertex="1" connectable="0" parent="I_LjJgBzsUawm7O9w_LE-115">
          <mxGeometry x="-0.54" y="-1" relative="1" as="geometry">
            <mxPoint as="offset" />
          </mxGeometry>
        </mxCell>
        <mxCell id="I_LjJgBzsUawm7O9w_LE-116" style="edgeStyle=orthogonalEdgeStyle;rounded=0;orthogonalLoop=1;jettySize=auto;html=1;exitX=0.25;exitY=0;exitDx=0;exitDy=0;entryX=0.648;entryY=1.032;entryDx=0;entryDy=0;entryPerimeter=0;" edge="1" parent="WIyWlLk6GJQsqaUBKTNV-1" source="I_LjJgBzsUawm7O9w_LE-53" target="I_LjJgBzsUawm7O9w_LE-79">
          <mxGeometry relative="1" as="geometry">
            <Array as="points">
              <mxPoint x="408" y="-503" />
              <mxPoint x="321" y="-503" />
            </Array>
          </mxGeometry>
        </mxCell>
        <mxCell id="I_LjJgBzsUawm7O9w_LE-134" value="appelle" style="edgeLabel;html=1;align=center;verticalAlign=middle;resizable=0;points=[];" vertex="1" connectable="0" parent="I_LjJgBzsUawm7O9w_LE-116">
          <mxGeometry x="-0.5707" relative="1" as="geometry">
            <mxPoint as="offset" />
          </mxGeometry>
        </mxCell>
        <mxCell id="I_LjJgBzsUawm7O9w_LE-117" style="edgeStyle=orthogonalEdgeStyle;rounded=0;orthogonalLoop=1;jettySize=auto;html=1;entryX=0.097;entryY=0.017;entryDx=0;entryDy=0;entryPerimeter=0;" edge="1" parent="WIyWlLk6GJQsqaUBKTNV-1" source="I_LjJgBzsUawm7O9w_LE-53" target="I_LjJgBzsUawm7O9w_LE-12">
          <mxGeometry relative="1" as="geometry">
            <Array as="points">
              <mxPoint x="530" y="40" />
              <mxPoint x="602" y="40" />
            </Array>
          </mxGeometry>
        </mxCell>
        <mxCell id="I_LjJgBzsUawm7O9w_LE-120" style="edgeStyle=orthogonalEdgeStyle;rounded=0;orthogonalLoop=1;jettySize=auto;html=1;entryX=1;entryY=0.5;entryDx=0;entryDy=0;" edge="1" parent="WIyWlLk6GJQsqaUBKTNV-1" source="I_LjJgBzsUawm7O9w_LE-52" target="I_LjJgBzsUawm7O9w_LE-65">
          <mxGeometry relative="1" as="geometry">
            <mxPoint x="1470" y="-120" as="targetPoint" />
          </mxGeometry>
        </mxCell>
        <mxCell id="I_LjJgBzsUawm7O9w_LE-139" value="appelle" style="edgeLabel;html=1;align=center;verticalAlign=middle;resizable=0;points=[];" vertex="1" connectable="0" parent="I_LjJgBzsUawm7O9w_LE-120">
          <mxGeometry x="-0.0657" y="6" relative="1" as="geometry">
            <mxPoint as="offset" />
          </mxGeometry>
        </mxCell>
        <mxCell id="I_LjJgBzsUawm7O9w_LE-121" style="edgeStyle=orthogonalEdgeStyle;rounded=0;orthogonalLoop=1;jettySize=auto;html=1;exitX=0.5;exitY=0;exitDx=0;exitDy=0;entryX=0.538;entryY=1.011;entryDx=0;entryDy=0;entryPerimeter=0;" edge="1" parent="WIyWlLk6GJQsqaUBKTNV-1" source="I_LjJgBzsUawm7O9w_LE-49" target="I_LjJgBzsUawm7O9w_LE-92">
          <mxGeometry relative="1" as="geometry" />
        </mxCell>
        <mxCell id="I_LjJgBzsUawm7O9w_LE-140" value="appelle" style="edgeLabel;html=1;align=center;verticalAlign=middle;resizable=0;points=[];" vertex="1" connectable="0" parent="I_LjJgBzsUawm7O9w_LE-121">
          <mxGeometry x="-0.0566" y="-4" relative="1" as="geometry">
            <mxPoint as="offset" />
          </mxGeometry>
        </mxCell>
        <mxCell id="I_LjJgBzsUawm7O9w_LE-123" style="edgeStyle=orthogonalEdgeStyle;rounded=0;orthogonalLoop=1;jettySize=auto;html=1;exitX=0.75;exitY=0;exitDx=0;exitDy=0;entryX=0.398;entryY=1.003;entryDx=0;entryDy=0;entryPerimeter=0;" edge="1" parent="WIyWlLk6GJQsqaUBKTNV-1" source="I_LjJgBzsUawm7O9w_LE-41" target="I_LjJgBzsUawm7O9w_LE-79">
          <mxGeometry relative="1" as="geometry" />
        </mxCell>
        <mxCell id="I_LjJgBzsUawm7O9w_LE-133" value="appelle" style="edgeLabel;html=1;align=center;verticalAlign=middle;resizable=0;points=[];" vertex="1" connectable="0" parent="I_LjJgBzsUawm7O9w_LE-123">
          <mxGeometry x="0.0922" y="-3" relative="1" as="geometry">
            <mxPoint as="offset" />
          </mxGeometry>
        </mxCell>
        <mxCell id="I_LjJgBzsUawm7O9w_LE-125" style="edgeStyle=orthogonalEdgeStyle;rounded=0;orthogonalLoop=1;jettySize=auto;html=1;exitX=0;exitY=0.25;exitDx=0;exitDy=0;entryX=0.706;entryY=1.019;entryDx=0;entryDy=0;entryPerimeter=0;" edge="1" parent="WIyWlLk6GJQsqaUBKTNV-1" source="I_LjJgBzsUawm7O9w_LE-41" target="I_LjJgBzsUawm7O9w_LE-75">
          <mxGeometry relative="1" as="geometry">
            <Array as="points">
              <mxPoint x="-140" y="-180" />
              <mxPoint x="-140" y="-623" />
            </Array>
          </mxGeometry>
        </mxCell>
        <mxCell id="I_LjJgBzsUawm7O9w_LE-131" value="appelle" style="edgeLabel;html=1;align=center;verticalAlign=middle;resizable=0;points=[];" vertex="1" connectable="0" parent="I_LjJgBzsUawm7O9w_LE-125">
          <mxGeometry x="-0.1041" relative="1" as="geometry">
            <mxPoint as="offset" />
          </mxGeometry>
        </mxCell>
        <mxCell id="I_LjJgBzsUawm7O9w_LE-127" style="edgeStyle=orthogonalEdgeStyle;rounded=0;orthogonalLoop=1;jettySize=auto;html=1;entryX=0;entryY=0.5;entryDx=0;entryDy=0;" edge="1" parent="WIyWlLk6GJQsqaUBKTNV-1" source="I_LjJgBzsUawm7O9w_LE-44" target="I_LjJgBzsUawm7O9w_LE-13">
          <mxGeometry relative="1" as="geometry">
            <Array as="points">
              <mxPoint x="370" y="-113" />
              <mxPoint x="370" y="90" />
              <mxPoint x="540" y="90" />
              <mxPoint x="540" y="288" />
            </Array>
          </mxGeometry>
        </mxCell>
      </root>
    </mxGraphModel>
  </diagram>
</mxfile>
